<?xml version="1.0" encoding="utf-8"?>
<svg version="1.1" xmlns="http://www.w3.org/2000/svg" viewBox="687 0 315.5 207.4" xml:space="preserve">
  <style type="text/css">
    .st0{fill:#FFFFFF;}
  </style>
  <!-- "Me" from ColabMe wordmark -->
  <polygon class="st0" points="833.3,9 808,9 800.9,9 766.2,148.4 731.6,9 724.5,9 699.2,9 687.6,9 687.6,207.4 724.5,207.4
    724.5,110.8 743.4,187.1 756.6,187.1 775.9,187.1 789.1,187.1 808,110.8 808,207.4 844.9,207.4 844.9,9"/>
  <path class="st0" d="M960.7,157L960.7,157v7.5c0,3.4-2.7,6.1-6.1,6.1h-23.9h-5.8c-2.8,0-5.4-0.6-7.7-1.6c-3.5-1.5-6.6-4.1-8.8-7.2
    c-2.2-3.2-3.4-6.9-3.4-11.1v-4.9h97v-37.1c0-7.8-1.6-15.3-4.5-22.1c-4.3-10.2-11.5-18.8-20.5-25S956.9,52,945.3,52h-20.4
    c-7.8,0-15.3,1.6-22.1,4.5C892.6,60.8,884,68,877.8,77c-6.1,9-9.7,20.1-9.7,31.8v42c0,7.8,1.6,15.3,4.5,22.1
    c4.3,10.2,11.5,18.8,20.5,25c9,6.1,20.1,9.7,31.8,9.7h40.6c20.2,0,36.5-16.4,36.5-36.5v-14L960.7,157L960.7,157z M905,108.7
    c0-2.8,0.6-5.4,1.6-7.7c1.5-3.6,4-6.6,7.2-8.8c3.2-2.2,6.9-3.4,11.1-3.4h20.4c2.8,0,5.4,0.6,7.7,1.6c3.5,1.5,6.6,4.1,8.8,7.2
    c2.2,3.2,3.4,6.9,3.4,11.1v7.8H905V108.7L905,108.7z"/>
</svg>
