<?xml version="1.0" encoding="utf-8"?>
<!-- Generator: Adobe Illustrator 28.3.0, SVG Export Plug-In . SVG Version: 6.00 Build 0)  -->
<svg version="1.1" id="Layer_2_00000084513464407596848900000008830151656306257335_"
	 xmlns="http://www.w3.org/2000/svg" xmlns:xlink="http://www.w3.org/1999/xlink" x="0px" y="0px" viewBox="0 0 1002 207.4"
	 style="enable-background:new 0 0 1002 207.4;" xml:space="preserve">
<style type="text/css">
	.st0{fill:#FFFFFF;}
</style>
<g id="Layer_1-2">
	<g>
		<polygon class="st0" points="833.3,9 808,9 800.9,9 766.2,148.4 731.6,9 724.5,9 699.2,9 687.6,9 687.6,207.4 724.5,207.4 
			724.5,110.8 743.4,187.1 756.6,187.1 775.9,187.1 789.1,187.1 808,110.8 808,207.4 844.9,207.4 844.9,9 		"/>
		<path class="st0" d="M314.7,0v207.4h40V0H314.7z M325,8.5h6.5l5.9,7.6V8.5h6.9v20h-6.1l-5.9-7.5v7.5H325V8.5z M333.5,198.9
			c-3.4,0-6.2-0.7-8.1-1.6l1.4-5.8c1.4,0.8,4.5,1.8,6.6,1.8c1.8,0,2.5-0.4,2.5-1.1s-0.4-1.1-2.9-1.7c-5-1.3-7-3.9-7-6.7
			c0-4.4,3.9-7.5,9.9-7.5c2.9,0,5.6,0.7,7,1.3l-1.3,5.5c-1.1-0.5-3.4-1.3-5.3-1.3c-1.4,0-2.2,0.3-2.2,1.1c0,0.7,0.7,1.1,3.5,1.9
			c4.5,1.2,6.4,3.4,6.4,6.8C343.9,195.6,340.7,198.9,333.5,198.9L333.5,198.9z M329.2,132.3l3.4-25.9l-9.7-6.1l9.1-26l10.3,7.4
			l-3.8,12.9l7.9,5.1L329.2,132.3L329.2,132.3z"/>
		<path class="st0" d="M287.4,86.6c-4.3-10.2-11.5-18.8-20.5-25S246.8,52,235.1,52h-17.4c-7.8,0-15.3,1.6-22.1,4.5
			c-10.2,4.3-18.8,11.5-25,20.5c-6.1,9-9.7,20.1-9.7,31.8v42c0,7.8,1.6,15.3,4.5,22.1c4.3,10.2,11.5,18.8,20.5,25
			c9,6.1,20.1,9.7,31.8,9.7h17.4c7.8,0,15.3-1.6,22.1-4.5c10.2-4.3,18.8-11.5,25-20.5c6.1-9,9.7-20.1,9.7-31.8v-42
			C291.9,100.9,290.3,93.4,287.4,86.6z M255,150.7c0,2.8-0.6,5.4-1.6,7.7c-1.5,3.6-4.1,6.6-7.2,8.8c-3.2,2.1-6.9,3.4-11.1,3.4h-17.4
			c-2.8,0-5.4-0.6-7.7-1.6c-3.6-1.5-6.6-4.1-8.8-7.2c-2.1-3.2-3.4-6.9-3.4-11.1v-42c0-2.8,0.6-5.4,1.6-7.7c1.5-3.6,4.1-6.6,7.2-8.8
			c3.2-2.2,6.9-3.4,11.1-3.4h17.4c2.8,0,5.4,0.6,7.7,1.6c3.6,1.5,6.6,4.1,8.8,7.2c2.1,3.2,3.4,6.9,3.4,11.1V150.7L255,150.7z"/>
		<path class="st0" d="M106.1,152.2c-0.2,2.2-0.7,4.3-1.5,6.2c-1.5,3.6-4.1,6.6-7.2,8.8c-3.2,2.1-6.9,3.4-11.1,3.4H56.7
			c-2.8,0-5.4-0.6-7.7-1.6c-3.5-1.5-6.6-4.1-8.8-7.2c-2.2-3.2-3.4-6.9-3.4-11.1V56.8c0-2.8,0.6-5.4,1.6-7.7c1.5-3.5,4-6.6,7.2-8.8
			s6.9-3.4,11.1-3.4h29.5l0,0c2.8,0,5.4,0.6,7.7,1.6c3.6,1.5,6.6,4,8.8,7.2c1.9,2.8,3.1,6,3.3,9.5h37c-0.2-7.2-1.7-14.2-4.4-20.5
			c-4.3-10.2-11.5-18.8-20.5-25C109,3.6,97.9,0,86.2,0H56.8C49,0,41.5,1.6,34.7,4.5C24.5,8.8,15.8,16,9.7,25C3.6,34.1,0,45.1,0,56.8
			v93.9c0,7.8,1.6,15.3,4.5,22.1C8.8,183,16,191.6,25,197.7s20.1,9.7,31.8,9.7h29.5c7.8,0,15.3-1.6,22.1-4.5
			c10.2-4.3,18.8-11.5,25-20.5c5.8-8.6,9.4-19.1,9.7-30.2H106.1L106.1,152.2z"/>
		<path class="st0" d="M960.7,157L960.7,157v7.5c0,3.4-2.7,6.1-6.1,6.1h-23.9h-5.8c-2.8,0-5.4-0.6-7.7-1.6c-3.5-1.5-6.6-4.1-8.8-7.2
			c-2.2-3.2-3.4-6.9-3.4-11.1v-4.9h97v-37.1c0-7.8-1.6-15.3-4.5-22.1c-4.3-10.2-11.5-18.8-20.5-25S956.9,52,945.3,52h-20.4
			c-7.8,0-15.3,1.6-22.1,4.5C892.6,60.8,884,68,877.8,77c-6.1,9-9.7,20.1-9.7,31.8v42c0,7.8,1.6,15.3,4.5,22.1
			c4.3,10.2,11.5,18.8,20.5,25c9,6.1,20.1,9.7,31.8,9.7h40.6c20.2,0,36.5-16.4,36.5-36.5v-14L960.7,157L960.7,157z M905,108.7
			c0-2.8,0.6-5.4,1.6-7.7c1.5-3.6,4-6.6,7.2-8.8c3.2-2.2,6.9-3.4,11.1-3.4h20.4c2.8,0,5.4,0.6,7.7,1.6c3.5,1.5,6.6,4.1,8.8,7.2
			c2.2,3.2,3.4,6.9,3.4,11.1v7.8H905V108.7L905,108.7z"/>
		<g>
			<path class="st0" d="M502.3,86.6c-4.3-10.2-11.5-18.8-20.5-25S461.7,52,450,52h-17.4c-7.8,0-15.3,1.6-22.1,4.5
				c-10.2,4.3-18.8,11.5-25,20.5c-4.7,6.9-7.9,14.9-9.1,23.6h38c1.5-3.4,4-6.3,7-8.3c3.2-2.2,6.9-3.4,11.1-3.4H450
				c2.8,0,5.4,0.6,7.7,1.6c3.5,1.5,6.6,4.1,8.8,7.2c2.1,3.2,3.4,6.9,3.4,11.1v7h-16.7v22.1h16.7v47.5h-38.8c-3.3,0-6.4-0.7-9.2-1.9
				c-4.2-1.8-7.9-4.8-10.5-8.6s-4-8.3-4-13.3l0,0c0-3.3,0.7-6.4,1.9-9.2c1.8-4.2,4.8-7.9,8.6-10.5c3.1-2.1,6.7-3.4,10.6-3.9v-22.3
				h-6.1c-6.3,0-12.4,1.3-17.9,3.6c-8.2,3.5-15.2,9.3-20.2,16.6c-4.9,7.3-7.8,16.2-7.8,25.6l0,0c0,6.3,1.3,12.4,3.6,17.9
				c3.5,8.2,9.3,15.2,16.6,20.2c7.3,4.9,16.2,7.8,25.6,7.8h84.5v-98.7C506.7,100.9,505.2,93.4,502.3,86.6L502.3,86.6z"/>
			<path class="st0" d="M455.8,150.5c-4.5,1-9,2-13.1,4.2c-3.9,2.2-7,5.4-10.9,7.7c-4.8,2.8-13.4,4-17.1-0.9l0,0
				c0,3.3,0.9,6.4,2.8,9.1c1.8,2.6,4.3,4.7,7.2,5.9c2,0.9,4.2,1.3,6.4,1.3h31.4v-28.6C460.8,149.7,456.2,150.4,455.8,150.5
				L455.8,150.5z M450.9,172.1c-3.4,0-6.1-2.7-6.1-6.1s2.7-6.1,6.1-6.1s6.1,2.7,6.1,6.1S454.2,172.1,450.9,172.1z"/>
			<circle class="st0" cx="426.5" cy="152.7" r="4"/>
			<circle class="st0" cx="445.6" cy="140.1" r="2.9"/>
			<circle class="st0" cx="436.9" cy="122.4" r="2.9"/>
		</g>
		<path class="st0" d="M657.9,86.6c-4.3-10.2-11.5-18.8-20.5-25S617.3,52,605.6,52h-21.4c-3-4.8-8.1-8.1-14-8.7V26.8
			c0-3.7-3-6.8-6.8-6.8H563V8.8l6.2-5.3c1.4-1.2,0.5-3.4-1.3-3.4h-31.3c-1.8,0-2.6,2.2-1.3,3.4l6.2,5.3v11.3H541
			c-3.7,0-6.8,3-6.8,6.8v55.3c0,3.5,2.7,6.4,6.2,6.7V109h8.7V88.8h6.7v14.8h8.7V88.8h40.9c2.8,0,5.4,0.6,7.7,1.6
			c3.5,1.5,6.6,4.1,8.8,7.2c2.2,3.2,3.4,6.9,3.4,11.1v42c0,2.8-0.6,5.4-1.6,7.7c-1.5,3.6-4,6.6-7.2,8.8c-3.2,2.1-6.9,3.4-11.1,3.4
			h-15.9c-2.8,0-5.4-0.6-7.7-1.6c-3.5-1.5-6.6-4.1-8.8-7.2c-1-1.5-1.8-3.2-2.4-5H581V148c0-3.6-2.9-6.5-6.5-6.5h-50.6v8.8
			c0,3.6,2.9,6.5,6.5,6.5h4.3c0.6,5.6,2,10.9,4.1,15.9c4.3,10.2,11.5,18.8,20.5,25c9,6.1,20.1,9.7,31.8,9.7h14.5
			c7.8,0,15.3-1.6,22.1-4.5c10.2-4.3,18.8-11.5,25-20.5c6.1-9,9.7-20.1,9.7-31.8v-42C662.4,100.9,660.8,93.4,657.9,86.6L657.9,86.6z
			 M579.7,61.8c0,6.2-5,11.3-11.3,11.3s-11.3-5.1-11.3-11.3s5-11.3,11.3-11.3S579.7,55.6,579.7,61.8z"/>
	</g>
</g>
</svg>
